<?xml version="1.0" standalone="no"?>
<!DOCTYPE svg PUBLIC "-//W3C//DTD SVG 20010904//EN"
 "http://www.w3.org/TR/2001/REC-SVG-20010904/DTD/svg10.dtd">
<svg version="1.0" xmlns="http://www.w3.org/2000/svg"
 width="16.000000pt" height="16.000000pt" viewBox="0 0 16.000000 16.000000"
 preserveAspectRatio="xMidYMid meet">
<metadata>
Created by potrace 1.11, written by Peter Selinger 2001-2013
</metadata>
<g transform="translate(0.000000,16.000000) scale(0.006504,-0.006504)"
fill="#000000" stroke="none">
<path d="M1254 2445 c5 -15 -24 -22 -37 -8 -4 3 -32 8 -63 10 -49 4 -56 2 -51
-11 5 -12 0 -16 -17 -16 -37 0 -88 -21 -83 -34 3 -7 -4 -18 -16 -25 -20 -13
-20 -14 -2 -27 10 -8 13 -14 7 -14 -18 0 -15 -21 6 -36 15 -11 12 -14 -29 -24
-41 -10 -48 -16 -58 -48 -6 -21 -20 -52 -31 -69 -17 -29 -25 -33 -62 -34 -38
0 -47 -5 -76 -41 -21 -26 -29 -45 -23 -51 5 -5 6 -21 1 -37 -4 -15 -4 -34 1
-41 21 -34 0 -53 -67 -61 -16 -1 -33 -9 -39 -15 -5 -7 -39 -15 -75 -19 -36 -3
-76 -11 -89 -17 -37 -18 -63 -60 -68 -110 -7 -55 15 -82 76 -92 24 -4 45 -14
51 -25 5 -9 12 -57 15 -106 3 -49 7 -100 9 -114 29 -223 26 -773 -5 -918 -7
-31 -13 -61 -15 -67 -13 -62 -14 -84 -6 -89 6 -4 14 0 19 7 19 33 74 49 170
49 51 1 96 -2 99 -4 3 -3 -29 -24 -71 -47 -107 -59 -132 -106 -105 -201 8 -29
19 -39 61 -59 34 -15 62 -21 83 -18 18 3 39 -1 50 -8 13 -10 25 -11 49 -2 54
18 83 40 143 107 31 36 61 66 65 68 4 2 13 23 20 46 12 41 14 43 40 36 15 -5
30 -6 33 -2 3 3 6 -18 6 -47 0 -28 6 -67 14 -85 19 -45 93 -95 159 -106 88
-16 255 -40 274 -40 23 0 51 45 73 118 15 47 15 60 3 105 -7 29 -23 59 -34 68
-20 15 -19 16 35 29 65 15 70 25 61 108 -3 31 -8 79 -10 107 -2 27 -7 72 -10
100 -14 116 -13 135 6 135 10 0 21 5 24 10 3 6 18 10 32 10 16 0 27 7 30 20 3
10 29 33 59 50 48 27 59 38 56 61 -1 4 14 23 33 44 19 20 38 48 42 63 3 15 16
41 29 57 44 59 59 168 18 134 -14 -11 -15 -9 -11 17 3 16 8 47 12 69 8 50 -10
125 -30 125 -8 0 -15 -9 -15 -19 0 -11 -4 -22 -9 -25 -5 -3 -12 -22 -15 -41
-8 -39 -26 -48 -26 -12 -1 42 -12 102 -20 111 -9 9 -34 -68 -45 -139 -8 -51
-49 -132 -59 -117 -14 24 -36 11 -57 -33 -12 -25 -27 -45 -35 -45 -8 0 -19 -9
-26 -20 -19 -31 -26 -24 -18 17 33 156 39 193 35 212 -2 11 0 23 4 26 10 6 8
114 -3 168 -7 31 -6 37 8 37 67 0 110 76 86 151 -8 22 -22 46 -32 53 -10 8
-18 18 -16 24 5 17 -34 70 -62 84 -48 25 -53 35 -47 94 3 31 19 83 35 117 16
34 29 75 28 92 -2 27 -6 30 -47 37 -24 3 -59 14 -77 23 -31 16 -32 18 -18 34
20 22 20 41 1 41 -9 0 -15 10 -15 26 0 24 -2 25 -39 19 -34 -6 -40 -4 -46 14
-6 21 -50 61 -66 61 -5 0 -9 -7 -9 -15 0 -21 -10 -19 -50 8 -62 42 -137 61
-126 32z"/>
</g>
</svg>
