<?xml version="1.0" standalone="no"?>
<!DOCTYPE svg PUBLIC "-//W3C//DTD SVG 20010904//EN"
 "http://www.w3.org/TR/2001/REC-SVG-20010904/DTD/svg10.dtd">
<svg version="1.0" xmlns="http://www.w3.org/2000/svg"
 width="773.000000pt" height="773.000000pt" viewBox="0 0 773.000000 773.000000"
 preserveAspectRatio="xMidYMid meet">
<metadata>
Created by potrace 1.11, written by Peter Selinger 2001-2013
</metadata>
<g transform="translate(0.000000,773.000000) scale(0.100000,-0.100000)"
fill="#000000" stroke="none">
<path d="M4303 7334 c-16 -7 -17 -38 -2 -65 14 -26 4 -58 -13 -41 -7 7 -20 12
-30 12 -10 0 -18 4 -18 9 0 4 -25 11 -55 15 -30 3 -74 12 -97 20 -26 8 -85 14
-146 14 -119 0 -133 -10 -86 -59 26 -27 22 -37 -11 -29 -28 7 -123 -1 -183
-16 -121 -30 -156 -61 -101 -89 16 -9 27 -20 24 -25 -3 -5 -31 -14 -63 -21
-31 -7 -63 -17 -70 -24 -18 -17 -4 -44 27 -51 67 -14 75 -36 22 -64 -49 -25
-56 -56 -13 -66 35 -9 82 -42 82 -59 0 -12 -23 -22 -148 -69 -24 -9 -61 -17
-83 -18 -44 -1 -59 -18 -59 -65 0 -39 -37 -146 -58 -169 -28 -30 -72 -111 -72
-131 0 -43 -58 -82 -84 -56 -4 4 -17 8 -29 10 -12 1 -42 4 -66 7 -61 6 -121
-18 -121 -50 0 -14 -9 -28 -22 -35 -13 -6 -53 -41 -90 -77 -52 -51 -68 -73
-68 -94 0 -23 4 -28 25 -28 30 0 30 -1 6 -65 -17 -46 -19 -75 -12 -187 1 -9
11 -18 24 -20 16 -2 23 -11 25 -31 3 -27 -20 -67 -39 -67 -4 0 -38 -14 -75
-31 -56 -26 -81 -32 -153 -34 -47 -1 -89 -3 -93 -4 -16 -2 -7 -42 13 -62 25
-25 19 -35 -11 -19 -12 6 -51 12 -86 13 -53 2 -68 -2 -79 -16 -11 -15 -25 -17
-95 -14 -153 7 -297 -38 -340 -108 -11 -17 -29 -40 -41 -51 -64 -58 -102 -267
-64 -348 20 -41 62 -64 203 -110 89 -29 122 -36 155 -31 59 9 62 8 63 -22 8
-180 16 -348 19 -438 5 -119 12 -283 21 -467 4 -93 2 -118 -8 -119 -7 0 -160
-1 -341 -1 -180 0 -328 -3 -328 -7 -1 -3 -2 -468 -3 -1034 l-1 -1027 328 0
329 0 -6 -38 c-3 -20 -8 -62 -11 -92 -4 -30 -8 -66 -10 -80 -2 -14 -7 -50 -10
-80 -6 -56 -8 -71 -20 -150 -4 -25 -8 -56 -10 -70 -2 -14 -14 -87 -26 -163
-26 -159 -23 -167 41 -148 22 6 40 18 40 25 0 21 139 85 221 102 77 16 266 18
390 4 35 -5 91 -11 123 -14 33 -3 61 -8 64 -10 5 -6 -57 -37 -142 -71 -37 -15
-99 -45 -137 -67 -191 -110 -259 -238 -245 -463 9 -162 34 -215 101 -215 21 0
44 -9 63 -25 17 -14 35 -25 41 -25 7 0 29 -9 49 -19 86 -45 184 -51 239 -16
24 16 26 16 55 -14 34 -35 78 -46 151 -38 95 10 214 66 281 133 53 53 146 162
146 171 0 5 45 53 100 106 133 130 183 206 199 297 6 34 8 35 46 31 52 -5 100
-8 152 -10 l42 -1 -6 -49 c-3 -31 -1 -51 6 -55 7 -4 11 -40 11 -92 0 -157 36
-230 155 -311 22 -16 60 -43 85 -62 53 -40 163 -92 246 -117 69 -21 247 -26
278 -8 15 9 30 9 65 -2 25 -8 87 -21 136 -29 50 -9 129 -24 176 -35 142 -33
192 -26 251 37 33 34 148 259 148 289 0 12 7 38 15 57 22 52 18 122 -10 201
-17 49 -21 74 -15 87 6 10 6 20 1 23 -4 3 -11 20 -15 37 -3 17 -15 44 -27 60
l-20 29 35 1 c39 2 39 2 79 12 27 7 28 10 23 57 -3 38 -1 50 9 50 19 0 91 38
104 54 14 17 19 191 7 279 -7 61 -6 67 10 68 11 0 227 1 482 1 l462 0 1 147
c0 80 0 533 0 1005 0 757 2 863 16 889 8 17 17 49 19 71 2 23 7 65 10 95 5 40
3 55 -7 62 -20 13 -22 12 -70 -26 -52 -41 -75 -46 -64 -12 3 12 11 37 16 55 5
17 14 49 20 70 6 20 14 57 19 82 4 25 14 68 22 97 9 31 11 58 6 67 -5 8 -6 37
-4 63 3 35 -2 62 -20 105 -13 32 -24 68 -24 81 0 27 -17 47 -42 47 -21 0 -38
-29 -38 -64 0 -13 -11 -38 -25 -55 -18 -20 -27 -46 -31 -83 -5 -52 -78 -227
-90 -215 -6 5 -8 17 -20 122 -11 98 -12 106 -19 205 -4 52 -12 103 -17 113
-22 43 -57 -2 -73 -95 -3 -17 -8 -35 -10 -38 -3 -4 -7 -25 -11 -46 -3 -22 -12
-52 -20 -68 -9 -19 -11 -33 -4 -41 5 -6 7 -15 3 -18 -3 -4 -10 -26 -14 -49
-20 -113 -46 -192 -96 -292 -65 -130 -93 -171 -105 -154 -4 7 -8 23 -8 35 0
12 -10 34 -23 49 -33 38 -56 22 -96 -66 -32 -68 -35 -72 -61 -66 -15 3 -31 2
-34 -1 -11 -12 -39 -13 -109 -7 -59 5 -67 8 -62 24 3 10 2 21 -2 23 -13 8 -15
67 -3 67 6 0 8 4 5 10 -3 6 -2 10 3 10 10 0 35 54 35 76 0 8 3 14 6 14 4 0 6
11 6 25 -1 14 7 58 17 98 10 40 21 88 24 107 3 19 8 49 11 65 3 17 6 125 7
240 1 116 4 215 5 220 6 20 1 35 -14 35 -8 0 -18 16 -24 38 -5 20 -13 51 -17
67 -17 62 -13 75 17 75 16 0 29 -5 29 -11 0 -6 8 -1 18 11 11 13 31 23 48 24
42 2 138 63 166 107 13 21 30 64 37 96 7 32 16 69 20 83 4 13 1 51 -6 83 -14
58 -66 171 -84 183 -5 3 -7 9 -4 14 3 5 -11 20 -32 33 -21 13 -44 32 -52 41
-7 9 -19 16 -25 16 -13 0 -47 36 -40 43 2 2 -2 25 -10 52 -8 26 -13 60 -10 74
5 24 -2 31 -78 79 -46 29 -107 60 -135 68 -56 16 -74 31 -50 40 11 4 15 28 16
101 1 53 4 99 6 104 3 4 8 29 11 56 7 68 21 115 49 172 14 27 25 57 25 67 0 9
6 25 13 33 7 9 31 45 52 81 37 61 40 71 43 158 5 110 -7 134 -61 124 -75 -13
-165 0 -216 32 -20 12 -45 27 -56 34 -32 20 -57 30 -107 43 l-47 13 20 36 c11
19 38 48 60 64 42 32 46 41 25 69 -11 14 -19 16 -40 7 -45 -17 -59 -13 -51 13
28 93 26 134 -9 139 -20 4 -120 -24 -158 -43 -46 -23 -78 12 -78 84 0 52 -183
198 -212 169 -5 -5 -11 -35 -12 -66 -1 -31 -4 -58 -7 -60 -2 -3 -24 13 -47 34
-53 50 -146 112 -192 130 -19 7 -42 20 -50 29 -8 9 -31 18 -50 19 -19 2 -37 7
-40 12 -3 4 -18 10 -35 13 -16 3 -39 8 -50 11 -11 2 -26 3 -32 0z m1507 -2024
c0 -12 -8 -12 -35 0 -18 8 -17 9 8 9 15 1 27 -3 27 -9z m-3655 -3632 c-2 -24
-6 -59 -9 -78 -2 -19 -10 -78 -16 -130 -7 -52 -17 -99 -23 -105 -7 -7 -8 -7
-4 0 3 6 8 42 11 80 3 39 8 79 10 90 2 11 7 57 11 103 4 45 11 82 15 82 5 0 7
-19 5 -42z m3448 -753 c8 -20 2 -22 -73 -24 -36 -1 -81 -4 -99 -6 -50 -6 -63
8 -16 18 141 29 181 32 188 12z"/>
<path d="M943 2641 c0 -11 5 -18 9 -15 4 3 5 11 1 19 -7 21 -12 19 -10 -4z"/>
</g>
</svg>
